<?xml version="1.0" encoding="utf-8"?>
<!-- Generator: Adobe Illustrator 26.0.3, SVG Export Plug-In . SVG Version: 6.00 Build 0)  -->
<svg version="1.1" id="Layer_1" xmlns="http://www.w3.org/2000/svg" xmlns:xlink="http://www.w3.org/1999/xlink" x="0px" y="0px"
	 viewBox="0 0 269.3 285" style="enable-background:new 0 0 269.3 285;" xml:space="preserve">
<style type="text/css">
	.st0{fill:#64ffda;}
</style>
<path class="st0" d="M0,47C44.3,31.2,87.4,15.9,130.6,0.7c2.5-0.9,5.1-0.9,7.6-0.2c43.6,15.3,87.1,30.8,131.1,46.4
	c-4.1,35.4-8,70.1-12,104.8c-2.4,21.2-5,42.4-7.2,63.7c-0.7,6.7-3.5,10.9-9.8,14.2c-32.8,17.7-65.3,36.1-98.2,53.7
	c-3.8,2-10.6,2.3-14.3,0.3c-33.6-18-66.9-36.5-100-55.2c-3.4-1.9-7-6.4-7.5-10C13.3,161.7,6.8,105,0,47z M101.8,205.9
	c-1.5,10.2,6.3,28.1,16.5,30.8c10.1,2.7,23.2,3.1,32.1-1.3c9.4-4.6,17.9-14.8,16.4-30.1l-18.3,12.4l-1.5-1.9l20.9-18.6l-2.5-2.5
	l-17,11.7l-1.6-2.2l21.4-18.2l-2.4-2.8l-20.1,13.1c6.2-13.4,23.1-13.5,22-29.7c-0.9-12.6-2.6-23.6-10.8-31h-46.4
	c-8.4,8.1-10.2,19.2-10.9,31.9c-0.8,15.4,16.7,15.1,21,28.2l-19-12.8l-2.5,3.3l21.5,17.7l-1.7,2l-17.5-11.4l-2.4,2.9l21.6,18.1
	l-1.8,1.9L101.8,205.9z M51.5,72.2c2.3,10,4.5,17.4,5.6,25c1.3,8.7,5.6,13.3,14,16c15.1,4.9,29.8,11.1,44.8,16.4
	c4.5,1.6,9.5,2,14.2,3c4.6-24.3,2.2-78.9-5.1-84V83l-4.7,0.1V49.6l-4.5-0.7c-2.7,5.7-5.9,11.2-7.8,17.1c-2.6,8.1-7.4,10.5-15.6,9.5
	C79.4,74,66.3,73.4,51.5,72.2z M217.8,72.2c-16.5,1.3-30.8,2.1-45,3.6c-6.6,0.7-10-1.7-12.2-7.7c-2.4-6.5-5.7-12.7-8.6-19.1
	l-4.7,0.8v33.4l-3.6-0.2l-2-33.4l-4.1,0.4V132c3.8-0.2,7.5,0.5,10.6-0.6c19-6.8,37.9-13.9,56.7-21.2c2.4-0.9,4.6-4.2,5.4-6.8
	C213,93.7,215.1,83.8,217.8,72.2L217.8,72.2z M172.7,191.5c10.4-8.6,19.7-16.1,28.7-24c2.2-1.9,4.8-4.8,4.9-7.3
	c0.4-14.9,0.2-29.8,0.2-48l-41.9,25.4C179,150.8,167.5,171.8,172.7,191.5z M64.7,113.4l-3.1,2.5c0,14.3-0.1,28.6,0.1,42.9
	c0,2.1,0.7,5,2.1,6.2c10.3,9,20.8,17.7,32.1,27.3c4.1-20.8-5.5-41.2,7.1-55.2c-6.4-3.7-12.2-6.7-17.8-10.2
	C78.3,122.6,71.6,117.9,64.7,113.4L64.7,113.4z M109.8,50.4C90.2,44,81.6,57,71.5,69.3C102.3,74.7,102.6,74.6,109.8,50.4L109.8,50.4
	z M158.1,50.5c7.5,24.4,10.6,25.9,38.1,18.1C185.8,57.5,177.5,43.7,158.1,50.5L158.1,50.5z M95.7,218.8c5.5-18.3-3-27.8-16.9-34.7
	C72.7,201.2,85,208.9,95.7,218.8z M172.8,218.6c9.8-10.4,23.4-17.5,16.3-35C176,191,166.7,200.2,172.8,218.6z"/>
</svg>
