<?xml version="1.0" encoding="utf-8"?><svg xmlns="http://www.w3.org/2000/svg" xmlns:xlink="http://www.w3.org/1999/xlink" width="1920" height="789" preserveAspectRatio="xMidYMid" viewBox="0 0 1920 789" style="z-index:1;margin-right:-2px;display:block;background-repeat-y:initial;background-repeat-x:initial;animation-play-state:paused" ><g transform="translate(960,394.5) scale(1,1) translate(-960,-394.5)" style="transform:matrix(1, 0, 0, 1, 0, 0);animation-play-state:paused" ><linearGradient id="lg-0.25290540299521047" x1="0" x2="1" y1="0" y2="0" style="animation-play-state:paused" ><stop stop-color="#4b4e6d" offset="0" style="animation-play-state:paused" ></stop>
  
<stop stop-color="#84dcc6" offset="1" style="animation-play-state:paused" ></stop></linearGradient>
<path d="M 0 0 M 0 667.163 Q 192 691.471 384 683.736 T 768 629.502 T 1152 669.672 T 1536 594.158 T 1920 563.918 L 1920 231.578 Q 1728 173.809 1536 173.128 T 1152 157.536 T 768 148.194 T 384 104.262 T 0 119.411 Z" fill="url(#lg-0.25290540299521047)" opacity="0.4" style="opacity:0.4;animation-play-state:paused" ></path>
<path d="M 0 0 M 0 707.188 Q 192 661.074 384 653.245 T 768 657.32 T 1152 638.074 T 1536 616.025 T 1920 580.607 L 1920 252.745 Q 1728 220.795 1536 214.436 T 1152 129.397 T 768 145.905 T 384 106.065 T 0 57.8889 Z" fill="url(#lg-0.25290540299521047)" opacity="0.4" style="opacity:0.4;animation-play-state:paused" ></path>
<path d="M 0 0 M 0 713.642 Q 192 678.892 384 676.005 T 768 672.245 T 1152 659.591 T 1536 582.236 T 1920 561.475 L 1920 233.837 Q 1728 190.179 1536 188.443 T 1152 198.137 T 768 129.364 T 384 102.197 T 0 111.148 Z" fill="url(#lg-0.25290540299521047)" opacity="0.4" style="opacity:0.4;animation-play-state:paused" ></path>
<path d="M 0 0 M 0 699.849 Q 192 653.791 384 648.721 T 768 629.804 T 1152 601.094 T 1536 586.979 T 1920 554.141 L 1920 253.58 Q 1728 212.035 1536 203.545 T 1152 182.42 T 768 155.623 T 384 97.6282 T 0 79.3504 Z" fill="url(#lg-0.25290540299521047)" opacity="0.4" style="opacity:0.4;animation-play-state:paused" ></path></g></svg>
