<?xml version="1.0" encoding="utf-8"?>
<!-- Generator: Adobe Illustrator 26.0.3, SVG Export Plug-In . SVG Version: 6.00 Build 0)  -->
<svg version="1.1" id="Layer_1" xmlns="http://www.w3.org/2000/svg" xmlns:xlink="http://www.w3.org/1999/xlink" x="0px" y="0px"
	 viewBox="0 0 1920 941" style="enable-background:new 0 0 1920 941;" xml:space="preserve">
<style type="text/css">
	.st0{opacity:0.4;fill:url(#SVGID_1_);enable-background:new    ;}
	.st1{opacity:0.4;fill:url(#SVGID_00000060710240828479990140000010227274872482611366_);enable-background:new    ;}
	.st2{opacity:0.4;fill:url(#SVGID_00000052812520996469824350000005083941396640680587_);enable-background:new    ;}
</style>
<g transform="translate(1280,624.5) scale(1,1) translate(-1280,-624.5)">
	
		<linearGradient id="SVGID_1_" gradientUnits="userSpaceOnUse" x1="660.8688" y1="890.611" x2="661.8087" y2="890.611" gradientTransform="matrix(1210.4832 0 0 -893.2633 -799953.3125 796019)">
		<stop  offset="0" style="stop-color:#4B4E6D"/>
		<stop  offset="1" style="stop-color:#84DCC6"/>
	</linearGradient>
	<path class="st0" d="M1155,476.2c0,171.1-330.9,322.4-493.5,375s-440.8,66.7-541.4-71.4S-27.4,275,73.1,136.9s423.9-84.6,586.5-32
		S1155,305.1,1155,476.2"/>
	
		<linearGradient id="SVGID_00000010302077648384548970000008597971532034467720_" gradientUnits="userSpaceOnUse" x1="660.7966" y1="890.6061" x2="661.7365" y2="890.6061" gradientTransform="matrix(1139.502 0 0 -905.6171 -752929.8125 806991.4375)">
		<stop  offset="0" style="stop-color:#4B4E6D"/>
		<stop  offset="1" style="stop-color:#84DCC6"/>
	</linearGradient>
	<path style="opacity:0.4;fill:url(#SVGID_00000010302077648384548970000008597971532034467720_);enable-background:new    ;" d="
		M1120.2,476.2c0,154.1-320.5,303.6-467.1,350.6c-146.6,47-446.5,79.9-536.7-44.2s-89.3-489.7,0.9-613.8S536.5-13.5,683.1,34.4
		S1120.2,322,1120.2,476.2"/>
	
		<linearGradient id="SVGID_00000037691562681154310680000015291596822161100725_" gradientUnits="userSpaceOnUse" x1="660.81" y1="890.6121" x2="661.7499" y2="890.6121" gradientTransform="matrix(1153.1484 0 0 -897.9525 -761948.4375 800228.625)">
		<stop  offset="0" style="stop-color:#4B4E6D"/>
		<stop  offset="1" style="stop-color:#84DCC6"/>
	</linearGradient>
	<path style="opacity:0.4;fill:url(#SVGID_00000037691562681154310680000015291596822161100725_);enable-background:new    ;" d="
		M1147.5,476.2c0,157-318.6,386.3-467.1,434.2s-411.7-44.2-503.8-171.1S14.9,288.2,107,161.3s396.6-80.8,545.2-32
		S1147.5,319.2,1147.5,476.2"/>
</g>
</svg>
