<?xml version="1.0" encoding="utf-8"?><svg xmlns="http://www.w3.org/2000/svg" xmlns:xlink="http://www.w3.org/1999/xlink" width="2880" height="1405" preserveAspectRatio="xMidYMid" viewBox="0 0 2880 1405" style="z-index:1;margin-right:-3px;display:block;background-repeat-y:initial;background-repeat-x:initial;animation-play-state:paused" ><g transform="translate(1440,702.5) scale(1,1) translate(-1440,-702.5)" style="transform:matrix(1, 0, 0, 1, 0, 0);animation-play-state:paused" ><g transform="translate(2350.2585742567953,-3.568925808228755) scale(100)" opacity="0.4" style="transform:matrix(100, 0, 0, 100, 2350.26, -3.56893);opacity:0.4;animation-play-state:paused" ><path d="M11.174399999999999 0 C11.174399999999999 1.7280000000000002 11.74102756886403 2.4344853639270054 11.150016761197275 4.058274212645055 S9.670824014727048 5.85904106797167 8.560087025188707 7.182765865681263 S7.429291897739511 9.411911031144635 5.932800000000001 10.275911031144636 S3.6421619937264427 10.70457170425116 1.940414196521347 11.004635755259615 S-0.3586920197196328 11.985398925150111 -2.0604398169247284 11.685334874141656 S-4.0907081022604865 10.54131427204883 -5.587199999999997 9.67731427204883 S-7.9788399547342035 8.950785459206198 -9.089576944272544 7.6270606614966034 S-9.909490414043297 5.4456587382964035 -10.500501221710053 3.821869889578354 S-11.8656 1.7280000000000018 -11.8656 1.4531169059962834e-15 S-11.09151202937681 -2.1980810408603015 -10.500501221710055 -3.8218698895783514 S-10.200313933810888 -6.303335863787007 -9.089576944272547 -7.627060661496601 S-7.083691897739515 -8.813314272048828 -5.587200000000005 -9.677314272048829 S-3.7621876141298243 -11.385270823133201 -2.0604398169247284 -11.685334874141656 S0.23866639931624611 -11.304699806268072 1.940414196521342 -11.004635755259617 S4.436308102260491 -11.139911031144637 5.932800000000001 -10.275911031144636 S7.4493500356503635 -8.50649066339086 8.560087025188704 -7.182765865681267 S10.559005953530514 -5.682063061363113 11.150016761197271 -4.058274212645063 S11.174399999999999 -1.7280000000000029 11.174399999999999 -2.7369386384784365e-15" fill="#4b4e6d" stroke-width="0" transform="matrix(1,0,0,1,0,0)" style="transform:matrix(1, 0, 0, 1, 0, 0);animation-play-state:paused" ></path></g>
<g transform="translate(2532.3102891081544,-144.78271096987442) scale(100)" opacity="0.4" style="transform:matrix(100, 0, 0, 100, 2532.31, -144.783);opacity:0.4;animation-play-state:paused" ><path d="M13.409279999999997 0 C13.409279999999997 2.0736 14.089233082636834 2.9213824367124057 13.380020113436728 4.869929055174065 S11.604988817672455 7.030849281566002 10.272104430226447 8.619319038817515 S8.915150277287413 11.29429323737356 7.119360000000001 12.33109323737356 S4.37059439247173 12.845486045101392 2.3284970358256163 13.205562906311538 S-0.4304304236635592 14.382478710180132 -2.4725277803096737 14.022401848969986 S-4.908849722712584 12.649577126458595 -6.704639999999996 11.612777126458596 S-9.574607945681045 10.740942551047436 -10.907492333127053 9.152472793795923 S-11.891388496851954 6.534790485955683 -12.600601466052062 4.586243867494024 S-14.238719999999999 2.0736000000000017 -14.238719999999999 1.7437402871955399e-15 S-13.30981443525217 -2.6376972490323616 -12.600601466052064 -4.586243867494021 S-12.240376720573064 -7.564003036544406 -10.907492333127056 -9.15247279379592 S-8.500430277287416 -10.575977126458591 -6.704640000000005 -11.612777126458592 S-4.514625136955789 -13.66232498775984 -2.472527780309674 -14.022401848969986 S0.2863996791794956 -13.565639767521686 2.32849703582561 -13.20556290631154 S5.323569722712589 -13.36789323737356 7.119360000000001 -12.33109323737356 S8.939220042780438 -10.207788796069032 10.272104430226445 -8.619319038817519 S12.670807144236617 -6.818475673635735 13.380020113436725 -4.869929055174076 S13.409279999999997 -2.073600000000003 13.409279999999997 -3.2843263661741233e-15" fill="#5494ac" stroke-width="0" transform="matrix(1,0,0,1,0,0)" style="transform:matrix(1, 0, 0, 1, 0, 0);animation-play-state:paused" ></path></g>
<g transform="translate(2969.234404751416,-483.6957953578242) scale(100)" opacity="0.4" style="transform:matrix(100, 0, 0, 100, 2969.23, -483.696);opacity:0.4;animation-play-state:paused" ><path d="M18.772991999999995 0 C18.772991999999995 2.90304 19.72492631569157 4.089935411397368 18.73202815881142 6.817900677243691 S16.246984344741435 9.843188994192403 14.380946202317025 12.067046654344521 S12.481210388202378 15.812010532322985 9.967104 17.263530532322985 S6.118832149460422 17.983680463141948 3.2598958501558624 18.487788068836153 S-0.6026025931289829 20.135470194252186 -3.461538892433543 19.63136258855798 S-6.872389611797617 17.709407977042034 -9.386495999999994 16.257887977042035 S-13.40445112395346 15.037319571466409 -15.270489266377872 12.813461911314292 S-16.64794389559274 9.148706680337956 -17.640842052472888 6.4207414144916335 S-19.934207999999998 2.903040000000002 -19.934207999999998 2.441236402073756e-15 S-18.633740209353036 -3.6927761486453057 -17.640842052472888 -6.420741414491629 S-17.136527408802287 -10.589604251162168 -15.270489266377878 -12.813461911314286 S-11.900602388202383 -14.806367977042026 -9.386496000000006 -16.257887977042028 S-6.320475191738104 -19.127254982863775 -3.4615388924335435 -19.63136258855798 S0.4009595508512933 -18.991895674530358 3.259895850155854 -18.487788068836153 S7.452997611797624 -18.715050532322984 9.967104 -17.263530532322985 S12.51490805989261 -14.290904314496643 14.380946202317022 -12.067046654344527 S17.73913000193126 -9.545865943090028 18.732028158811413 -6.817900677243705 S18.772991999999995 -2.9030400000000043 18.772991999999995 -4.598056912643773e-15" fill="#84dcc6" stroke-width="0" transform="matrix(1,0,0,1,0,0)" style="transform:matrix(1, 0, 0, 1, 0, 0);animation-play-state:paused" ></path></g></g></svg>