<?xml version="1.0" encoding="utf-8"?><svg xmlns="http://www.w3.org/2000/svg" xmlns:xlink="http://www.w3.org/1999/xlink" width="2880" height="1405" preserveAspectRatio="xMidYMid" viewBox="0 0 2880 1405" style="z-index:1;margin-right:-3px;display:block;background-repeat-y:initial;background-repeat-x:initial;animation-play-state:paused" ><g transform="translate(1440,702.5) scale(1,1) translate(-1440,-702.5)" style="transform:matrix(1, 0, 0, 1, 0, 0);animation-play-state:paused" ><linearGradient id="lg-0.39100804755419594" x1="0" x2="1" y1="0" y2="0" style="animation-play-state:paused" ><stop stop-color="#4b4e6d" offset="0" style="animation-play-state:paused" ></stop>

  
<stop stop-color="#84dcc6" offset="1" style="animation-play-state:paused" ></stop></linearGradient>
<path d="M 0 0 L 0 1256.7 Q 288 1142 576 1097.06 T 1152 1056.82 T 1728 744.321 T 2304 522.415 T 2880 521.241 L 2880 0 Z" fill="url(#lg-0.39100804755419594)" opacity="0.4" style="opacity:0.4;animation-play-state:paused" ></path>
<path d="M 0 0 L 0 1193.8 Q 288 1119.03 576 1101.85 T 1152 863.209 T 1728 812.427 T 2304 732.158 T 2880 477.793 L 2880 0 Z" fill="url(#lg-0.39100804755419594)" opacity="0.4" style="opacity:0.4;animation-play-state:paused" ></path>
<path d="M 0 0 L 0 1209.31 Q 288 1065.66 576 1049.59 T 1152 1097.84 T 1728 819.338 T 2304 695.345 T 2880 625.469 L 2880 0 Z" fill="url(#lg-0.39100804755419594)" opacity="0.4" style="opacity:0.4;animation-play-state:paused" ></path></g></svg>